<mxfile host="app.diagrams.net" modified="2021-04-15T06:06:38.056Z" agent="5.0 (Windows NT 10.0; Win64; x64) AppleWebKit/537.36 (KHTML, like Gecko) Chrome/89.0.4389.114 Safari/537.36" etag="FE1EG38pMbchK3Jprsst" version="14.6.0" type="github">
  <diagram id="jx-xwYNqNsW7ddqk4lwQ" name="Page-1">
    <mxGraphModel dx="868" dy="425" grid="1" gridSize="10" guides="1" tooltips="1" connect="1" arrows="1" fold="1" page="1" pageScale="1" pageWidth="850" pageHeight="1100" math="0" shadow="0">
      <root>
        <object label="" id="0">
          <mxCell />
        </object>
        <mxCell id="1" parent="0" />
        <mxCell id="EO1gNj846mHikBZ6XDZV-54" value="User" style="shape=umlActor;verticalLabelPosition=bottom;verticalAlign=top;html=1;outlineConnect=0;" vertex="1" parent="1">
          <mxGeometry x="50" y="690" width="30" height="80" as="geometry" />
        </mxCell>
        <mxCell id="EO1gNj846mHikBZ6XDZV-56" value="" style="ellipse;whiteSpace=wrap;html=1;" vertex="1" parent="1">
          <mxGeometry x="220" y="560" width="120" height="50" as="geometry" />
        </mxCell>
        <mxCell id="EO1gNj846mHikBZ6XDZV-78" style="edgeStyle=orthogonalEdgeStyle;rounded=0;orthogonalLoop=1;jettySize=auto;html=1;exitX=1;exitY=0.5;exitDx=0;exitDy=0;entryX=0;entryY=0.5;entryDx=0;entryDy=0;" edge="1" parent="1" source="EO1gNj846mHikBZ6XDZV-57" target="EO1gNj846mHikBZ6XDZV-75">
          <mxGeometry relative="1" as="geometry" />
        </mxCell>
        <mxCell id="EO1gNj846mHikBZ6XDZV-57" value="Multiplication" style="ellipse;whiteSpace=wrap;html=1;" vertex="1" parent="1">
          <mxGeometry x="220" y="620" width="120" height="50" as="geometry" />
        </mxCell>
        <mxCell id="EO1gNj846mHikBZ6XDZV-77" style="edgeStyle=orthogonalEdgeStyle;rounded=0;orthogonalLoop=1;jettySize=auto;html=1;entryX=0;entryY=0;entryDx=0;entryDy=0;" edge="1" parent="1" source="EO1gNj846mHikBZ6XDZV-58" target="EO1gNj846mHikBZ6XDZV-75">
          <mxGeometry relative="1" as="geometry" />
        </mxCell>
        <mxCell id="EO1gNj846mHikBZ6XDZV-58" value="Subtraction" style="ellipse;whiteSpace=wrap;html=1;" vertex="1" parent="1">
          <mxGeometry x="220" y="560" width="120" height="50" as="geometry" />
        </mxCell>
        <mxCell id="EO1gNj846mHikBZ6XDZV-79" style="edgeStyle=orthogonalEdgeStyle;rounded=0;orthogonalLoop=1;jettySize=auto;html=1;exitX=1;exitY=0.5;exitDx=0;exitDy=0;" edge="1" parent="1" source="EO1gNj846mHikBZ6XDZV-59">
          <mxGeometry relative="1" as="geometry">
            <mxPoint x="440" y="710" as="targetPoint" />
          </mxGeometry>
        </mxCell>
        <mxCell id="EO1gNj846mHikBZ6XDZV-59" value="Division" style="ellipse;whiteSpace=wrap;html=1;" vertex="1" parent="1">
          <mxGeometry x="220" y="680" width="120" height="50" as="geometry" />
        </mxCell>
        <mxCell id="EO1gNj846mHikBZ6XDZV-80" style="edgeStyle=orthogonalEdgeStyle;rounded=0;orthogonalLoop=1;jettySize=auto;html=1;exitX=1;exitY=0.5;exitDx=0;exitDy=0;entryX=0.075;entryY=1.05;entryDx=0;entryDy=0;entryPerimeter=0;" edge="1" parent="1" source="EO1gNj846mHikBZ6XDZV-60" target="EO1gNj846mHikBZ6XDZV-75">
          <mxGeometry relative="1" as="geometry" />
        </mxCell>
        <mxCell id="EO1gNj846mHikBZ6XDZV-60" value="Modulus" style="ellipse;whiteSpace=wrap;html=1;" vertex="1" parent="1">
          <mxGeometry x="220" y="740" width="120" height="50" as="geometry" />
        </mxCell>
        <mxCell id="EO1gNj846mHikBZ6XDZV-81" style="edgeStyle=orthogonalEdgeStyle;rounded=0;orthogonalLoop=1;jettySize=auto;html=1;exitX=1;exitY=0.5;exitDx=0;exitDy=0;entryX=0.5;entryY=1;entryDx=0;entryDy=0;" edge="1" parent="1" source="EO1gNj846mHikBZ6XDZV-61" target="EO1gNj846mHikBZ6XDZV-75">
          <mxGeometry relative="1" as="geometry" />
        </mxCell>
        <mxCell id="EO1gNj846mHikBZ6XDZV-61" value="Factorial" style="ellipse;whiteSpace=wrap;html=1;" vertex="1" parent="1">
          <mxGeometry x="220" y="800" width="120" height="50" as="geometry" />
        </mxCell>
        <mxCell id="EO1gNj846mHikBZ6XDZV-76" style="edgeStyle=orthogonalEdgeStyle;rounded=0;orthogonalLoop=1;jettySize=auto;html=1;entryX=0.058;entryY=0.017;entryDx=0;entryDy=0;entryPerimeter=0;" edge="1" parent="1" source="EO1gNj846mHikBZ6XDZV-62" target="EO1gNj846mHikBZ6XDZV-75">
          <mxGeometry relative="1" as="geometry" />
        </mxCell>
        <mxCell id="EO1gNj846mHikBZ6XDZV-62" value="Addition" style="ellipse;whiteSpace=wrap;html=1;" vertex="1" parent="1">
          <mxGeometry x="220" y="500" width="120" height="50" as="geometry" />
        </mxCell>
        <mxCell id="EO1gNj846mHikBZ6XDZV-82" style="edgeStyle=orthogonalEdgeStyle;rounded=0;orthogonalLoop=1;jettySize=auto;html=1;" edge="1" parent="1" source="EO1gNj846mHikBZ6XDZV-63">
          <mxGeometry relative="1" as="geometry">
            <mxPoint x="500" y="750" as="targetPoint" />
          </mxGeometry>
        </mxCell>
        <mxCell id="EO1gNj846mHikBZ6XDZV-63" value="Power" style="ellipse;whiteSpace=wrap;html=1;" vertex="1" parent="1">
          <mxGeometry x="220" y="860" width="120" height="50" as="geometry" />
        </mxCell>
        <mxCell id="EO1gNj846mHikBZ6XDZV-64" value="" style="endArrow=none;html=1;entryX=0;entryY=1;entryDx=0;entryDy=0;" edge="1" parent="1" target="EO1gNj846mHikBZ6XDZV-62">
          <mxGeometry width="50" height="50" relative="1" as="geometry">
            <mxPoint x="90" y="710" as="sourcePoint" />
            <mxPoint x="140" y="630" as="targetPoint" />
            <Array as="points" />
          </mxGeometry>
        </mxCell>
        <mxCell id="EO1gNj846mHikBZ6XDZV-65" value="" style="endArrow=none;html=1;entryX=0.1;entryY=0.82;entryDx=0;entryDy=0;entryPerimeter=0;" edge="1" parent="1" source="EO1gNj846mHikBZ6XDZV-54" target="EO1gNj846mHikBZ6XDZV-58">
          <mxGeometry width="50" height="50" relative="1" as="geometry">
            <mxPoint x="90" y="680" as="sourcePoint" />
            <mxPoint x="140" y="630" as="targetPoint" />
          </mxGeometry>
        </mxCell>
        <mxCell id="EO1gNj846mHikBZ6XDZV-66" value="" style="endArrow=none;html=1;entryX=0;entryY=0.64;entryDx=0;entryDy=0;entryPerimeter=0;" edge="1" parent="1" target="EO1gNj846mHikBZ6XDZV-57">
          <mxGeometry width="50" height="50" relative="1" as="geometry">
            <mxPoint x="80" y="720" as="sourcePoint" />
            <mxPoint x="160" y="640" as="targetPoint" />
          </mxGeometry>
        </mxCell>
        <mxCell id="EO1gNj846mHikBZ6XDZV-67" value="" style="endArrow=none;html=1;entryX=0;entryY=0.5;entryDx=0;entryDy=0;" edge="1" parent="1" target="EO1gNj846mHikBZ6XDZV-63">
          <mxGeometry width="50" height="50" relative="1" as="geometry">
            <mxPoint x="80" y="720" as="sourcePoint" />
            <mxPoint x="110" y="760" as="targetPoint" />
          </mxGeometry>
        </mxCell>
        <mxCell id="EO1gNj846mHikBZ6XDZV-68" value="" style="endArrow=none;html=1;entryX=-0.025;entryY=0.36;entryDx=0;entryDy=0;entryPerimeter=0;" edge="1" parent="1" target="EO1gNj846mHikBZ6XDZV-61">
          <mxGeometry width="50" height="50" relative="1" as="geometry">
            <mxPoint x="80" y="720" as="sourcePoint" />
            <mxPoint x="190" y="770" as="targetPoint" />
          </mxGeometry>
        </mxCell>
        <mxCell id="EO1gNj846mHikBZ6XDZV-69" value="" style="endArrow=none;html=1;entryX=0;entryY=0.5;entryDx=0;entryDy=0;exitX=1;exitY=0.3333333333333333;exitDx=0;exitDy=0;exitPerimeter=0;" edge="1" parent="1" source="EO1gNj846mHikBZ6XDZV-54" target="EO1gNj846mHikBZ6XDZV-60">
          <mxGeometry width="50" height="50" relative="1" as="geometry">
            <mxPoint x="90" y="680" as="sourcePoint" />
            <mxPoint x="150" y="710" as="targetPoint" />
          </mxGeometry>
        </mxCell>
        <mxCell id="EO1gNj846mHikBZ6XDZV-73" value="" style="endArrow=none;html=1;entryX=0;entryY=0.5;entryDx=0;entryDy=0;exitX=1;exitY=0.3333333333333333;exitDx=0;exitDy=0;exitPerimeter=0;" edge="1" parent="1" source="EO1gNj846mHikBZ6XDZV-54" target="EO1gNj846mHikBZ6XDZV-59">
          <mxGeometry width="50" height="50" relative="1" as="geometry">
            <mxPoint x="90" y="680" as="sourcePoint" />
            <mxPoint x="160" y="700" as="targetPoint" />
            <Array as="points" />
          </mxGeometry>
        </mxCell>
        <mxCell id="EO1gNj846mHikBZ6XDZV-75" value="Terminal&lt;br&gt;output." style="rounded=0;whiteSpace=wrap;html=1;" vertex="1" parent="1">
          <mxGeometry x="440" y="680" width="120" height="60" as="geometry" />
        </mxCell>
      </root>
    </mxGraphModel>
  </diagram>
</mxfile>
